# xmcd
#
# Track frame offsets:
#        150
#        33847
#        69000
#        98645
#        132327
#        173980
#        202685
#        224900
#
# Disc length: 3696 seconds
#
# Revision: 2
# Processed by: cddbd v1.5.1PL0 Copyright (c) Steve Scherf et al.
# Submitted via: ExactAudioCopy v0.95a5
#
DISCID=690e6e08
DTITLE=John Petrucci - Suspended Animation
DYEAR=2005
DGENRE=Instrumental Rock
TTITLE0=Jaws of Life
TTITLE1=Glasgow Kiss
TTITLE2=Tunnel Vision
TTITLE3=Wishful Thinking
TTITLE4=Damage Control
TTITLE5=Curve
TTITLE6=Lost Without You
TTITLE7=Animate-Inanimate
EXTD=Disco solista del chitarrista dei Dream Theater, John Petrucci
EXTT0=
EXTT1=
EXTT2=
EXTT3=
EXTT4=
EXTT5=
EXTT6=
EXTT7=
PLAYORDER=
